<svg width="266" height="100" viewBox="0 0 266 100" fill="none" xmlns="http://www.w3.org/2000/svg">
<g filter="url(#filter0_d_2_1491)">
<path d="M112 0H154C186 0 195.501 24.1398 205.733 48.6985C216.325 74.1247 227 100 262 100H4.00031C39.0003 100 49.6756 74.1247 60.2681 48.6985C70.4991 24.1398 80.0003 0 112 0Z" fill="url(#paint0_linear_2_1491)"/>
<path d="M112 0.25H154C169.923 0.25 180.23 6.24974 187.838 15.3006C195.21 24.0697 200.053 35.7041 204.994 47.575C205.163 47.9813 205.332 48.3879 205.502 48.7947L205.605 49.0418C210.863 61.6652 216.18 74.4274 224.525 84.0479C231.573 92.1732 240.777 98.0545 253.909 99.75H12.0917C25.2238 98.0545 34.428 92.1732 41.4759 84.0479C49.8208 74.4273 55.1373 61.6651 60.3959 49.0417L60.4988 48.7947C60.6683 48.3879 60.8375 47.9813 61.0066 47.5751C65.9476 35.7041 70.7902 24.0697 78.1622 15.3006C85.771 6.24974 96.0774 0.25 112 0.25Z" stroke="#7582F4" stroke-opacity="0.5" stroke-width="0.5"/>
</g>
<defs>
<filter id="filter0_d_2_1491" x="0.000305176" y="0" width="266" height="108" filterUnits="userSpaceOnUse" color-interpolation-filters="sRGB">
<feFlood flood-opacity="0" result="BackgroundImageFix"/>
<feColorMatrix in="SourceAlpha" type="matrix" values="0 0 0 0 0 0 0 0 0 0 0 0 0 0 0 0 0 0 127 0" result="hardAlpha"/>
<feOffset dy="4"/>
<feGaussianBlur stdDeviation="2"/>
<feComposite in2="hardAlpha" operator="out"/>
<feColorMatrix type="matrix" values="0 0 0 0 0.458824 0 0 0 0 0.509804 0 0 0 0 0.956863 0 0 0 1 0"/>
<feBlend mode="normal" in2="BackgroundImageFix" result="effect1_dropShadow_2_1491"/>
<feBlend mode="normal" in="SourceGraphic" in2="effect1_dropShadow_2_1491" result="shape"/>
</filter>
<linearGradient id="paint0_linear_2_1491" x1="183.615" y1="100" x2="183.615" y2="0" gradientUnits="userSpaceOnUse">
<stop stop-color="#262C51"/>
<stop offset="1" stop-color="#3E3F74"/>
</linearGradient>
</defs>
</svg>
